<?xml version="1.0" standalone="no"?>
<!DOCTYPE svg PUBLIC "-//W3C//DTD SVG 20010904//EN"
 "http://www.w3.org/TR/2001/REC-SVG-20010904/DTD/svg10.dtd">
<svg version="1.0" xmlns="http://www.w3.org/2000/svg"
 width="1080.000000pt" height="1080.000000pt" viewBox="0 0 1080.000000 1080.000000"
 preserveAspectRatio="xMidYMid meet">
<metadata>
Created by potrace 1.11, written by Peter Selinger 2001-2013
</metadata>
<g transform="translate(0.000000,1080.000000) scale(0.100000,-0.100000)"
fill="#000000" stroke="none">
<path d="M6989 10056 c-2 -2 -29 -6 -59 -10 -264 -27 -551 -127 -797 -277 -61
-38 -93 -60 -188 -132 -139 -105 -315 -297 -415 -454 -18 -29 -35 -52 -36 -50
-3 2 1 18 57 282 45 212 69 327 75 359 3 16 7 32 9 35 2 4 6 25 9 47 4 23 11
56 16 74 5 19 7 36 4 39 -3 3 -221 6 -485 6 l-479 0 -9 -30 c-6 -16 -12 -43
-14 -60 -3 -16 -16 -82 -30 -145 -29 -129 -56 -254 -61 -286 -3 -12 -14 -66
-26 -120 -12 -55 -24 -110 -26 -124 -3 -14 -17 -83 -33 -155 l-27 -130 -452
-3 -452 -2 5 22 c5 25 34 158 41 196 3 13 16 76 30 140 14 64 43 203 65 307
22 105 42 197 44 205 13 56 35 167 35 175 0 7 -166 10 -485 10 l-485 0 -5 -27
c-4 -23 -15 -77 -20 -98 -1 -5 -6 -26 -35 -165 -35 -165 -89 -420 -94 -445 -5
-26 -34 -161 -42 -195 -3 -11 -6 -29 -8 -40 -2 -11 -22 -105 -44 -210 -22
-104 -43 -201 -45 -215 -3 -14 -13 -59 -22 -100 -9 -41 -18 -86 -21 -100 -3
-14 -23 -108 -45 -209 -22 -101 -42 -200 -45 -220 -3 -20 -8 -39 -10 -42 -2
-4 -6 -24 -10 -44 -6 -43 -4 -32 -38 -185 -14 -63 -27 -126 -30 -140 -4 -24
-53 -255 -62 -295 -31 -138 -59 -287 -55 -289 3 -1 222 -2 485 -2 l480 1 8 30
c4 16 10 41 12 55 3 20 65 316 81 390 2 8 13 58 24 110 11 52 34 160 51 240
41 192 39 181 46 215 3 17 7 37 10 45 3 13 61 15 448 15 244 0 447 -3 450 -6
3 -3 1 -21 -4 -40 -5 -19 -11 -47 -14 -64 -2 -16 -16 -82 -30 -145 -13 -63
-27 -126 -30 -140 -2 -14 -12 -61 -21 -105 -9 -44 -19 -91 -21 -104 -3 -12
-11 -51 -19 -85 -8 -33 -16 -72 -19 -86 -2 -14 -11 -57 -20 -95 -8 -39 -17
-82 -20 -95 -2 -14 -9 -47 -16 -75 l-11 -50 -389 1 c-244 1 -390 -2 -390 -8 0
-9 260 -689 280 -733 9 -19 169 -434 232 -600 16 -44 31 -85 31 -91 2 -9 -184
-248 -238 -308 -6 -6 -66 -81 -135 -166 -68 -85 -132 -164 -142 -175 -9 -11
-128 -157 -264 -325 -135 -168 -261 -323 -279 -345 -18 -22 -74 -91 -124 -152
-105 -129 -112 -115 57 -114 l93 0 -6 -27 c-3 -15 -8 -40 -11 -57 -2 -16 -20
-100 -38 -185 -19 -85 -48 -222 -65 -305 -18 -82 -41 -190 -52 -240 -11 -49
-22 -103 -25 -120 -3 -16 -14 -72 -25 -124 -12 -51 -22 -101 -24 -110 -8 -41
-116 -549 -122 -571 -26 -104 -35 -293 -20 -410 64 -481 448 -840 992 -926
131 -20 359 -25 470 -9 28 3 61 8 75 10 184 26 418 109 575 205 159 97 365
287 441 406 10 16 21 31 25 34 15 13 107 175 146 258 68 145 143 388 166 537
3 17 9 48 15 70 6 22 13 54 16 70 2 17 19 95 36 175 34 158 109 510 116 550 3
14 13 61 23 105 10 44 21 96 25 115 3 19 8 44 11 55 2 11 12 51 20 89 9 39 17
71 19 73 2 2 11 -18 21 -44 26 -70 133 -348 160 -418 13 -33 45 -114 70 -180
25 -66 50 -129 55 -140 5 -11 34 -87 65 -168 l56 -148 -83 -102 c-98 -121
-179 -222 -617 -762 -183 -225 -340 -419 -349 -430 -10 -11 -35 -42 -57 -70
-22 -27 -42 -52 -45 -55 -3 -3 -33 -40 -68 -82 l-63 -78 548 0 549 0 229 301
c127 165 285 373 353 462 67 89 127 166 131 170 5 5 76 -195 161 -450 84 -252
155 -464 157 -470 6 -16 1023 -19 1023 -4 0 6 16 3 37 -5 80 -34 214 -47 304
-31 236 44 433 225 484 447 32 141 3 308 -68 397 -108 133 -240 195 -417 195
-234 1 -444 -130 -546 -339 l-31 -64 -34 83 c-18 46 -34 88 -36 93 -1 6 -23
62 -48 125 -145 360 -256 653 -252 664 3 7 36 50 74 97 38 46 134 165 213 264
80 99 152 189 161 200 10 11 77 94 150 185 149 185 339 420 472 585 l89 110
-346 3 c-190 1 -346 6 -346 11 0 4 24 122 54 262 29 140 57 272 62 294 4 22 8
42 9 45 0 3 4 21 8 40 8 40 10 48 31 145 8 38 13 71 11 73 -2 2 -287 4 -634 4
l-631 0 4 22 c2 11 22 109 45 216 23 107 43 204 45 215 3 11 9 40 15 65 5 25
12 56 15 70 2 14 9 45 15 70 5 25 12 58 15 75 4 24 66 318 81 385 2 8 15 71
30 140 14 69 30 141 35 160 5 19 11 49 14 65 7 40 11 61 51 245 19 86 36 167
39 181 2 13 9 48 15 78 6 30 13 56 15 58 4 5 26 9 96 18 74 10 276 66 378 105
439 169 824 513 1027 918 178 356 216 727 112 1097 -10 35 -19 63 -27 80 -5
11 -16 42 -26 68 -23 66 -104 205 -169 291 -163 220 -414 403 -685 500 -84 31
-241 71 -313 81 -27 4 -59 9 -70 12 -27 6 -402 14 -408 9z m216 -870 c56 -8
172 -44 195 -61 8 -6 33 -20 55 -30 22 -11 74 -54 115 -95 176 -175 230 -432
145 -688 -92 -275 -353 -506 -641 -566 -65 -14 -245 -15 -304 -2 -152 33 -300
129 -400 258 -31 41 -77 145 -96 218 -31 123 -18 289 33 425 22 57 91 178 123
215 63 73 90 100 142 142 187 152 406 216 633 184z m-1917 -1124 c2 -15 12
-61 23 -102 78 -296 246 -549 499 -754 82 -66 268 -172 373 -211 26 -10 47
-20 47 -24 0 -3 -243 -5 -539 -5 l-539 2 -39 -54 c-21 -30 -45 -63 -53 -73 -8
-11 -22 -29 -30 -41 -8 -13 -24 -35 -36 -49 -11 -14 -114 -153 -228 -309 -115
-156 -212 -280 -216 -275 -5 4 -29 76 -55 158 -69 218 -163 512 -184 572 -13
36 -15 53 -7 56 6 1 172 3 368 2 350 0 357 0 362 20 4 15 72 334 91 425 44
210 71 336 101 475 45 211 42 197 43 214 1 23 15 3 19 -27z m777 -1349 c-7
-32 -145 -683 -181 -853 -19 -91 -39 -185 -44 -210 -5 -25 -11 -54 -14 -65 -6
-28 -54 -254 -60 -285 -3 -14 -8 -38 -11 -55 -3 -16 -13 -61 -21 -100 -9 -38
-17 -77 -19 -85 -1 -8 -13 -62 -25 -120 -12 -58 -24 -112 -25 -120 -2 -8 -10
-47 -19 -85 -8 -39 -17 -82 -20 -95 -14 -74 -67 -314 -70 -317 -1 -2 -24 52
-51 120 -26 67 -80 205 -120 307 -40 102 -110 280 -156 395 -45 116 -96 246
-114 291 l-32 81 23 29 c13 16 112 139 221 274 109 135 302 373 428 530 243
303 306 380 311 380 2 0 1 -8 -1 -17z m-1546 -2283 c101 -304 149 -465 147
-485 -3 -17 -10 -52 -16 -80 -6 -27 -14 -60 -16 -71 -2 -12 -22 -104 -43 -205
-22 -101 -42 -195 -45 -209 -3 -20 -48 -231 -61 -290 -14 -62 -35 -160 -38
-180 -11 -56 -37 -178 -41 -191 -3 -8 -7 -27 -10 -44 -2 -16 -20 -103 -40
-192 -20 -89 -38 -175 -41 -190 -10 -58 -15 -77 -31 -131 -43 -148 -141 -281
-267 -363 -89 -57 -147 -74 -257 -74 -81 0 -103 4 -151 27 -76 35 -133 88
-173 162 -47 85 -64 182 -45 264 4 20 10 51 13 67 7 37 7 37 45 220 17 83 36
168 41 190 5 22 12 56 16 75 4 19 9 40 10 45 1 6 23 109 48 230 26 121 54 252
62 290 9 39 17 77 19 85 2 9 22 103 45 210 22 107 49 234 59 283 l19 87 -54 0
c-30 0 -54 2 -54 5 0 5 218 295 230 305 3 3 44 57 91 120 48 63 122 160 164
215 42 55 109 142 147 193 39 51 72 91 73 90 2 -2 71 -208 154 -458z m2780
-501 c-11 -22 -545 -747 -564 -767 -10 -11 -26 26 -85 210 -39 122 -96 299
-126 391 -30 93 -54 172 -54 177 0 4 189 8 420 8 409 0 419 -1 409 -19z m1033
-2143 c150 -62 230 -192 215 -353 -21 -220 -229 -394 -456 -381 -95 5 -164 37
-232 108 -136 140 -120 360 37 516 124 124 297 167 436 110z"/>
<path d="M7989 1690 c-1 -6 -2 -13 -3 -17 -3 -9 -24 -109 -30 -138 -3 -11 -14
-64 -25 -119 -12 -54 -23 -108 -25 -120 -2 -11 -9 -41 -15 -66 -6 -25 -11 -50
-11 -56 0 -6 33 -11 90 -11 l90 -1 9 37 c6 20 13 53 17 74 4 26 11 37 24 37
13 0 22 -19 38 -73 l21 -73 94 -1 95 0 -24 76 c-38 122 -38 115 -9 131 41 22
85 93 90 144 5 52 -7 91 -38 124 -45 49 -72 56 -234 59 -94 1 -153 -1 -154 -7z
m229 -186 c3 -23 -13 -33 -61 -39 -26 -4 -28 -2 -23 28 2 18 5 33 5 35 1 2 18
2 39 0 29 -2 38 -8 40 -24z"/>
</g>
</svg>
